<svg width="19" height="19" fill="none" xmlns="http://www.w3.org/2000/svg"><path fill-rule="evenodd" clip-rule="evenodd" d="M3.002.019c-.317.037-.675.16-.94.323-.124.076-.316.255-.946.882-.853.85-.86.858-.985 1.208-.124.349-.14.458-.127.842.028.849.047 1.128.116 1.698a16.023 16.023 0 003.962 8.742c.344.383 1.07 1.097 1.442 1.417A15.96 15.96 0 0014 18.895c.647.08.987.102 1.644.104l.61.001.206-.07c.469-.157.431-.13 1.268-.962.413-.411.793-.803.845-.872.185-.244.341-.62.4-.962a2.884 2.884 0 00.001-.776 3.988 3.988 0 00-.25-.724c-.256-.517-.875-1.078-1.384-1.255-.063-.022-.71-.204-1.438-.406l-1.323-.366-.393.002c-.354 0-.412.006-.59.054-.262.07-.486.162-.69.28-.138.081-.26.19-.706.631a10.16 10.16 0 01-.56.533c-.05 0-.815-.259-1.078-.364a11.775 11.775 0 01-1.269-.627 9.627 9.627 0 01-4.33-5.563l-.056-.192.517-.522c.543-.548.593-.608.728-.877.2-.397.281-.77.266-1.228-.01-.325.009-.24-.366-1.593a288.7 288.7 0 01-.229-.838 8.52 8.52 0 00-.239-.773 2.68 2.68 0 00-.487-.697c-.344-.36-.64-.55-1.087-.698-.39-.13-.645-.16-1.008-.116z" fill="#363636"/></svg>